<?xml version="1.0" encoding="utf-8"?>
<!-- Generator: Adobe Illustrator 16.0.0, SVG Export Plug-In . SVG Version: 6.00 Build 0)  -->
<!DOCTYPE svg PUBLIC "-//W3C//DTD SVG 1.1//EN" "http://www.w3.org/Graphics/SVG/1.1/DTD/svg11.dtd">
<svg version="1.1" id="Layer_1" xmlns="http://www.w3.org/2000/svg" xmlns:xlink="http://www.w3.org/1999/xlink" x="0px" y="0px"
	 width="198.425px" height="113.386px" viewBox="0 0 198.425 113.386" enable-background="new 0 0 198.425 113.386"
	 xml:space="preserve">
<g>
	<rect x="17.63" y="19.213" transform="matrix(0.7071 0.7071 -0.7071 0.7071 34.3394 -13.2963)" width="31.18" height="31.18"/>
	<rect x="61.725" y="19.213" transform="matrix(0.7071 0.7071 -0.7071 0.7071 47.2548 -44.4766)" width="31.18" height="31.18"/>
	<rect x="105.821" y="19.213" transform="matrix(0.7071 0.7071 -0.7071 0.7071 60.1701 -75.657)" width="31.18" height="31.18"/>
	<rect x="39.677" y="41.261" transform="matrix(0.7071 0.7071 -0.7071 0.7071 56.3873 -22.4288)" width="31.18" height="31.18"/>
	<rect x="83.773" y="41.261" transform="matrix(0.7071 0.7071 -0.7071 0.7071 69.3026 -53.6092)" width="31.18" height="31.18"/>
	<rect x="127.869" y="41.261" transform="matrix(0.7071 0.7071 -0.7071 0.7071 82.2179 -84.7895)" width="31.18" height="31.18"/>
	<rect x="149.917" y="19.213" transform="matrix(0.7071 0.7071 -0.7071 0.7071 73.0854 -106.8374)" width="31.18" height="31.18"/>
	<rect x="17.63" y="63.309" transform="matrix(0.7071 0.7071 -0.7071 0.7071 65.5198 -0.3809)" width="31.18" height="31.18"/>
	<rect x="61.725" y="63.309" transform="matrix(0.7071 0.7071 -0.7071 0.7071 78.4351 -31.5613)" width="31.18" height="31.18"/>
	<rect x="105.821" y="63.309" transform="matrix(0.7071 0.7071 -0.7071 0.7071 91.3505 -62.7417)" width="31.18" height="31.18"/>
	<rect x="149.917" y="63.309" transform="matrix(0.7071 0.7071 -0.7071 0.7071 104.2658 -93.922)" width="31.18" height="31.18"/>
</g>
<g>
</g>
<g>
</g>
<g>
</g>
<g>
</g>
<g>
</g>
<g>
</g>
</svg>
